<svg width="782" height="69" viewBox="0 0 782 69" xmlns="http://www.w3.org/2000/svg">
<path d="M0 4.8H12.768V66.912H0V4.8Z" fill="#CAFF00"/>
<path d="M27.669 19.2H40.149V66.912H27.669V19.2ZM58.485 29.472C54.901 29.472 51.797 30.176 49.173 31.584C46.549 32.928 44.437 34.592 42.837 36.576C41.237 38.56 40.117 40.48 39.477 42.336L39.381 37.056C39.445 36.288 39.701 35.168 40.149 33.696C40.597 32.16 41.269 30.528 42.165 28.8C43.061 27.008 44.245 25.312 45.717 23.712C47.189 22.048 48.981 20.704 51.093 19.68C53.205 18.656 55.669 18.144 58.485 18.144V29.472Z" fill="#CAFF00"/>
<path d="M109.688 51.072H121.784C121.272 54.336 119.896 57.248 117.656 59.808C115.48 62.368 112.504 64.384 108.728 65.856C104.952 67.328 100.344 68.064 94.9043 68.064C88.8242 68.064 83.4483 67.104 78.7763 65.184C74.1043 63.2 70.4563 60.352 67.8323 56.64C65.2083 52.928 63.8963 48.448 63.8963 43.2C63.8963 37.952 65.1763 33.472 67.7363 29.76C70.2963 25.984 73.8482 23.104 78.3923 21.12C83.0002 19.136 88.3762 18.144 94.5202 18.144C100.792 18.144 106.008 19.136 110.168 21.12C114.328 23.104 117.4 26.112 119.384 30.144C121.432 34.112 122.296 39.2 121.976 45.408H76.4723C76.7923 47.84 77.6882 50.048 79.1602 52.032C80.6962 54.016 82.7443 55.584 85.3043 56.736C87.9283 57.888 91.0322 58.464 94.6162 58.464C98.5842 58.464 101.88 57.792 104.504 56.448C107.192 55.04 108.92 53.248 109.688 51.072ZM93.9443 27.648C89.3363 27.648 85.5922 28.672 82.7122 30.72C79.8322 32.704 77.9762 35.168 77.1442 38.112H109.592C109.272 34.912 107.736 32.384 104.984 30.528C102.296 28.608 98.6163 27.648 93.9443 27.648Z" fill="#CAFF00"/>
<path d="M131.263 19.2H143.743V66.912H131.263V19.2ZM165.919 18.144C168.863 18.144 171.583 18.528 174.079 19.296C176.575 20.064 178.751 21.248 180.607 22.848C182.463 24.448 183.903 26.496 184.927 28.992C185.951 31.424 186.463 34.336 186.463 37.728V66.912H173.983V39.936C173.983 35.904 172.991 32.96 171.007 31.104C169.087 29.184 165.919 28.224 161.503 28.224C158.175 28.224 155.167 28.864 152.479 30.144C149.791 31.424 147.615 33.056 145.951 35.04C144.287 36.96 143.327 38.976 143.071 41.088L142.975 36.192C143.295 33.952 144.031 31.776 145.183 29.664C146.335 27.552 147.871 25.632 149.791 23.904C151.775 22.112 154.111 20.704 156.799 19.68C159.487 18.656 162.527 18.144 165.919 18.144Z" fill="#CAFF00"/>
<path d="M241.313 51.072H253.409C252.897 54.336 251.521 57.248 249.281 59.808C247.105 62.368 244.129 64.384 240.353 65.856C236.577 67.328 231.969 68.064 226.529 68.064C220.449 68.064 215.073 67.104 210.401 65.184C205.729 63.2 202.081 60.352 199.457 56.64C196.833 52.928 195.521 48.448 195.521 43.2C195.521 37.952 196.801 33.472 199.361 29.76C201.921 25.984 205.473 23.104 210.017 21.12C214.625 19.136 220.001 18.144 226.145 18.144C232.417 18.144 237.633 19.136 241.793 21.12C245.953 23.104 249.025 26.112 251.009 30.144C253.057 34.112 253.921 39.2 253.601 45.408H208.097C208.417 47.84 209.313 50.048 210.785 52.032C212.321 54.016 214.369 55.584 216.929 56.736C219.553 57.888 222.657 58.464 226.241 58.464C230.209 58.464 233.505 57.792 236.129 56.448C238.817 55.04 240.545 53.248 241.313 51.072ZM225.569 27.648C220.961 27.648 217.217 28.672 214.337 30.72C211.457 32.704 209.601 35.168 208.769 38.112H241.217C240.897 34.912 239.361 32.384 236.609 30.528C233.921 28.608 230.241 27.648 225.569 27.648Z" fill="#CAFF00"/>
<path d="M312.808 60.576H306.76L342.472 4.8H355.24V66.912H342.472V21.792L345.544 22.656L317.032 66.912H302.728L274.216 22.848L277.288 21.984V66.912H264.52V4.8H277.288L312.808 60.576Z" fill="#CAFF00"/>
<path d="M411.845 51.072H423.94C423.428 54.336 422.053 57.248 419.812 59.808C417.637 62.368 414.66 64.384 410.884 65.856C407.108 67.328 402.501 68.064 397.061 68.064C390.981 68.064 385.604 67.104 380.932 65.184C376.26 63.2 372.612 60.352 369.988 56.64C367.364 52.928 366.052 48.448 366.052 43.2C366.052 37.952 367.332 33.472 369.892 29.76C372.452 25.984 376.004 23.104 380.548 21.12C385.156 19.136 390.533 18.144 396.677 18.144C402.949 18.144 408.164 19.136 412.324 21.12C416.484 23.104 419.556 26.112 421.54 30.144C423.588 34.112 424.453 39.2 424.133 45.408H378.629C378.949 47.84 379.844 50.048 381.316 52.032C382.852 54.016 384.901 55.584 387.461 56.736C390.085 57.888 393.188 58.464 396.772 58.464C400.74 58.464 404.036 57.792 406.66 56.448C409.348 55.04 411.077 53.248 411.845 51.072ZM396.1 27.648C391.492 27.648 387.748 28.672 384.868 30.72C381.988 32.704 380.133 35.168 379.301 38.112H411.749C411.429 34.912 409.893 32.384 407.141 30.528C404.453 28.608 400.772 27.648 396.1 27.648Z" fill="#CAFF00"/>
<path d="M433.419 19.2H445.899V66.912H433.419V19.2ZM468.075 18.144C471.019 18.144 473.739 18.528 476.235 19.296C478.731 20.064 480.907 21.248 482.763 22.848C484.619 24.448 486.059 26.496 487.083 28.992C488.107 31.424 488.619 34.336 488.619 37.728V66.912H476.139V39.936C476.139 35.904 475.147 32.96 473.163 31.104C471.243 29.184 468.075 28.224 463.659 28.224C460.331 28.224 457.323 28.864 454.635 30.144C451.947 31.424 449.771 33.056 448.107 35.04C446.443 36.96 445.483 38.976 445.227 41.088L445.131 36.192C445.451 33.952 446.187 31.776 447.339 29.664C448.491 27.552 450.027 25.632 451.947 23.904C453.931 22.112 456.267 20.704 458.955 19.68C461.643 18.656 464.683 18.144 468.075 18.144Z" fill="#CAFF00"/>
<path d="M523.214 67.968C518.414 67.968 514.062 66.944 510.158 64.896C506.318 62.784 503.278 59.872 501.038 56.16C498.798 52.384 497.677 48.032 497.677 43.104C497.677 38.048 498.765 33.664 500.941 29.952C503.181 26.24 506.221 23.36 510.061 21.312C513.901 19.2 518.286 18.144 523.214 18.144C527.502 18.144 531.149 18.784 534.157 20.064C537.165 21.344 539.597 23.136 541.453 25.44C543.309 27.68 544.653 30.304 545.485 33.312C546.381 36.32 546.83 39.584 546.83 43.104C546.83 45.92 546.381 48.8 545.485 51.744C544.589 54.624 543.213 57.312 541.357 59.808C539.501 62.24 537.07 64.224 534.062 65.76C531.054 67.232 527.438 67.968 523.214 67.968ZM527.245 58.368C531.021 58.368 534.285 57.728 537.037 56.448C539.789 55.168 541.901 53.376 543.373 51.072C544.845 48.768 545.581 46.112 545.581 43.104C545.581 39.84 544.814 37.088 543.278 34.848C541.806 32.544 539.694 30.784 536.942 29.568C534.254 28.352 531.021 27.744 527.245 27.744C521.933 27.744 517.806 29.152 514.862 31.968C511.918 34.784 510.445 38.496 510.445 43.104C510.445 46.176 511.149 48.864 512.557 51.168C513.965 53.408 515.918 55.168 518.414 56.448C520.974 57.728 523.917 58.368 527.245 58.368ZM545.581 0H558.062V66.912H546.445C546.253 65.44 546.062 63.552 545.87 61.248C545.678 58.88 545.581 56.672 545.581 54.624V0Z" fill="#CAFF00"/>
<path d="M599.641 68.064C593.625 68.064 588.313 67.104 583.705 65.184C579.161 63.264 575.609 60.48 573.049 56.832C570.489 53.12 569.209 48.576 569.209 43.2C569.209 37.824 570.489 33.28 573.049 29.568C575.609 25.792 579.161 22.944 583.705 21.024C588.313 19.104 593.625 18.144 599.641 18.144C605.657 18.144 610.905 19.104 615.385 21.024C619.929 22.944 623.481 25.792 626.041 29.568C628.601 33.28 629.881 37.824 629.881 43.2C629.881 48.576 628.601 53.12 626.041 56.832C623.481 60.48 619.929 63.264 615.385 65.184C610.905 67.104 605.657 68.064 599.641 68.064ZM599.641 58.464C602.969 58.464 605.945 57.888 608.569 56.736C611.257 55.52 613.369 53.792 614.905 51.552C616.441 49.248 617.209 46.464 617.209 43.2C617.209 39.936 616.441 37.152 614.905 34.848C613.369 32.48 611.289 30.688 608.665 29.472C606.041 28.256 603.033 27.648 599.641 27.648C596.313 27.648 593.305 28.256 590.617 29.472C587.929 30.688 585.785 32.448 584.185 34.752C582.649 37.056 581.881 39.872 581.881 43.2C581.881 46.464 582.649 49.248 584.185 51.552C585.721 53.792 587.833 55.52 590.521 56.736C593.209 57.888 596.249 58.464 599.641 58.464Z" fill="#CAFF00"/>
<path d="M686.354 28.704L648.434 61.152L647.09 57.504H687.026V66.912H638.162V57.504L676.082 25.056L677.426 28.704H638.162V19.2H686.354V28.704Z" fill="#CAFF00"/>
<path d="M720.745 67.968C716.009 67.968 711.689 66.944 707.785 64.896C703.945 62.784 700.873 59.872 698.569 56.16C696.329 52.384 695.209 48.032 695.209 43.104C695.209 38.048 696.361 33.664 698.665 29.952C700.969 26.24 704.073 23.36 707.977 21.312C711.945 19.2 716.425 18.144 721.417 18.144C726.921 18.144 731.337 19.264 734.665 21.504C738.057 23.68 740.521 26.656 742.057 30.432C743.593 34.208 744.361 38.432 744.361 43.104C744.361 45.92 743.913 48.8 743.017 51.744C742.121 54.624 740.745 57.312 738.889 59.808C737.033 62.24 734.601 64.224 731.593 65.76C728.585 67.232 724.969 67.968 720.745 67.968ZM724.777 58.368C728.553 58.368 731.817 57.728 734.569 56.448C737.321 55.168 739.433 53.376 740.905 51.072C742.377 48.768 743.113 46.112 743.113 43.104C743.113 39.84 742.345 37.088 740.809 34.848C739.337 32.544 737.225 30.816 734.473 29.664C731.785 28.448 728.553 27.84 724.777 27.84C719.465 27.84 715.337 29.248 712.393 32.064C709.449 34.816 707.977 38.496 707.977 43.104C707.977 46.176 708.681 48.864 710.089 51.168C711.497 53.408 713.449 55.168 715.945 56.448C718.505 57.728 721.449 58.368 724.777 58.368ZM743.113 19.2H755.593V66.912H743.977C743.977 66.912 743.881 66.304 743.689 65.088C743.561 63.808 743.433 62.208 743.305 60.288C743.177 58.368 743.113 56.48 743.113 54.624V19.2Z" fill="#CAFF00"/>
<path d="M781.384 55.968V66.912H766.888V55.968H781.384Z" fill="#FF4D6D"/>
</svg>
