<svg width="14" height="14" viewBox="0 0 14 14" fill="none" xmlns="http://www.w3.org/2000/svg">
<g clip-path="url(#clip0_2_3)">
<path d="M3.54 1.71C3.54272 2.05933 3.40788 2.3957 3.16463 2.64643C2.92138 2.89717 2.58925 3.04213 2.24 3.05C1.89147 3.03721 1.56118 2.89102 1.31738 2.64163C1.07357 2.39225 0.934895 2.05873 0.93 1.71C0.945151 1.37024 1.08893 1.04895 1.33218 0.81126C1.57544 0.573573 1.89998 0.437277 2.24 0.43C2.57903 0.437413 2.90242 0.574047 3.14406 0.811969C3.3857 1.04989 3.52733 1.37113 3.54 1.71ZM1.07 5.43C1.07 4.66 1.56 4.78 2.24 4.78C2.92 4.78 3.4 4.66 3.4 5.43V12.93C3.4 13.71 2.91 13.55 2.24 13.55C1.57 13.55 1.07 13.71 1.07 12.93V5.43Z" stroke="#000001" stroke-linecap="round" stroke-linejoin="round"/>
<path d="M5.42 5.43C5.42 5 5.58 4.84 5.83 4.79C6.08 4.74 6.94 4.79 7.24 4.79C7.54 4.79 7.66 5.28 7.65 5.65C7.90662 5.30559 8.24732 5.0328 8.63951 4.85771C9.0317 4.68263 9.46226 4.61111 9.89 4.65C10.31 4.62432 10.7308 4.68729 11.1249 4.83483C11.519 4.98236 11.8776 5.21116 12.1775 5.50635C12.4774 5.80154 12.7119 6.15652 12.8656 6.54823C13.0194 6.93994 13.089 7.35962 13.07 7.78V12.9C13.07 13.68 12.59 13.52 11.91 13.52C11.23 13.52 10.75 13.68 10.75 12.9V8.9C10.7676 8.69413 10.7407 8.48689 10.671 8.29235C10.6014 8.09782 10.4908 7.92053 10.3466 7.77255C10.2024 7.62456 10.0281 7.50934 9.83539 7.43471C9.64272 7.36007 9.43625 7.32777 9.23 7.34C9.0247 7.33478 8.82064 7.37324 8.63132 7.45281C8.442 7.53239 8.27174 7.65128 8.13182 7.8016C7.9919 7.95192 7.8855 8.13025 7.81968 8.32478C7.75385 8.51931 7.7301 8.7256 7.75 8.93V12.93C7.75 13.71 7.26 13.55 6.58 13.55C5.9 13.55 5.42 13.71 5.42 12.93V5.43Z" stroke="#000001" stroke-linecap="round" stroke-linejoin="round"/>
</g>
<defs>
<clipPath id="clip0_2_3">
<rect width="14" height="14" fill="white"/>
</clipPath>
</defs>
</svg>
