<svg width="14" height="14" viewBox="0 0 14 14" fill="none" xmlns="http://www.w3.org/2000/svg">
<g clip-path="url(#clip0_1545_11827)">
<path d="M5.82 10.9999L8 13.1699C8.13375 13.307 8.30098 13.4068 8.48514 13.4594C8.6693 13.512 8.86401 13.5156 9.05 13.4699C9.23715 13.4264 9.40996 13.3355 9.55182 13.2059C9.69367 13.0763 9.7998 12.9124 9.86 12.7299L13.44 1.9999C13.5147 1.79885 13.5301 1.58058 13.4844 1.37102C13.4387 1.16147 13.3338 0.969449 13.1821 0.817787C13.0304 0.666125 12.8384 0.5612 12.6289 0.515484C12.4193 0.469768 12.201 0.485183 12 0.559898L1.27 4.1399C1.08125 4.20437 0.913142 4.31807 0.783048 4.46926C0.652954 4.62046 0.565595 4.80364 0.53 4.9999C0.493259 5.17839 0.501438 5.36321 0.553802 5.53776C0.606166 5.7123 0.701075 5.87111 0.83 5.9999L3.57 8.7399L3.48 12.2099L5.82 10.9999Z" stroke="#000001" stroke-linecap="round" stroke-linejoin="round"/>
<path d="M13.12 0.779785L3.57 8.73979" stroke="#000001" stroke-linecap="round" stroke-linejoin="round"/>
</g>
<defs>
<clipPath id="clip0_1545_11827">
<rect width="14" height="14" fill="white"/>
</clipPath>
</defs>
</svg>
